#!OML:ASF H:\LiuWeirdWalks\Patient Classification 1\Patient 1\Session 1\male.ASF
:FULLY-SPECIFIED
:DEGREES
1226
root 0.575067 18.2452 36.8365 9.33546 1.68546 2.71171
lowerback -2.87408 -2.51531 -1.11328
upperback -1.15783 -3.43243 9.76705
thorax 1.09348 -1.75288 10.8735
lowerneck -27.3167 4.80605 13.2564
upperneck 26.3159 6.01854 -14.9637
head 14.5879 1.86209 -7.2866
rclavicle -8.74653e-015 -4.13472e-014
rhumerus -33.9601 -24.538 -51.9699
rradius 20.7145
rwrist 1.89364
rhand -14.1727 -2.55585
rfingers 7.12502
rthumb 11.9626 -32.194
lclavicle -8.74653e-015 -4.13472e-014
lhumerus -39.403 -3.49373 88.2204
lradius 49.1643
lwrist 4.13787
lhand -6.65919 -5.32516
lfingers 7.12502
lthumb 19.1986 23.7472
rfemur -16.7542 -5.29817 17.7458
rtibia 29.2469
rfoot -12.7394 -19.5742
rtoes -4.33105
lfemur -9.38425 -2.22964 -18.5128
ltibia 16.3187
lfoot -4.97372 18.6986
ltoes 0.842436
1227
root 0.573425 18.2469 36.8476 9.54976 1.65929 2.44642
lowerback -3.15868 -2.56649 -1.05654
upperback -1.28068 -3.50456 9.67007
thorax 1.12962 -1.78637 10.7148
lowerneck -27.2931 4.78636 13.188
upperneck 26.2945 6.00754 -14.9231
head 14.5667 1.85549 -7.25596
rclavicle 2.5842e-014 4.77083e-014
rhumerus -34.4304 -24.5037 -52.0734
rradius 20.7053
rwrist 1.9201
rhand -14.1623 -2.59625
rfingers 7.12502
rthumb 11.9726 -32.2338
lclavicle 2.5842e-014 4.77083e-014
lhumerus -39.4439 -3.39765 88.0871
lradius 48.8196
lwrist 4.17175
lhand -6.69575 -5.3135
lfingers 7.12502
lthumb 19.1634 23.7624
rfemur -16.9213 -5.21259 18.0708
rtibia 29.136
rfoot -12.6659 -19.6209
rtoes -4.35963
lfemur -9.70952 -2.21866 -18.2045
ltibia 16.5662
lfoot -5.10502 18.7857
ltoes 0.555567
1228
root 0.572003 18.2493 36.8581 9.83638 1.6495 2.14628
lowerback -3.44024 -2.73532 -1.11007
upperback -1.459 -3.73011 9.6615
thorax 1.14815 -1.89731 10.7142
lowerneck -27.1025 4.8955 13.2967
upperneck 26.1999 6.17038 -15.0297
head 14.5268 1.92814 -7.27938
rclavicle -2.74323e-014 9.22361e-014
rhumerus -34.6825 -24.1918 -52.3237
rradius 20.6446
rwrist 1.98016
rhand -14.1733 -2.54629
rfingers 7.12502
rthumb 11.962 -32.1845
lclavicle -2.74323e-014 9.22361e-014
lhumerus -39.602 -2.94963 87.8771
lradius 48.4839
lwrist 4.18875
lhand -6.74272 -5.3158
lfingers 7.12502
lthumb 19.1182 23.7645
rfemur -17.1744 -5.13622 18.4425
rtibia 29.0282
rfoot -12.5803 -19.6674
rtoes -4.38631
lfemur -10.1134 -2.20641 -17.8525
ltibia 16.7954
lfoot -5.20696 18.86
ltoes 0.119778
1229
root 0.571306 18.2491 36.8704 9.85569 1.57661 2.01131
lowerback -3.42204 -2.8483 -1.30026
upperback -1.64126 -3.86207 9.56306
thorax 0.978333 -1.9545 10.7136
lowerneck -26.7682 4.91331 13.3321
upperneck 26.1361 6.23136 -15.0722
head 14.444 1.96251 -7.28133
rclavicle 5.24792e-014 -7.63333e-014
rhumerus -35.158 -23.827 -52.48
rradius 20.6173
rwrist 1.96096
rhand -14.179 -2.47984
rfingers 7.12502
rthumb 11.9565 -32.1184
lclavicle 5.24792e-014 -7.63333e-014
lhumerus -39.8992 -2.66967 87.7117
lradius 48.1234
lwrist 4.20879
lhand -6.79678 -5.32645
lfingers 7.12502
lthumb 19.0663 23.759
rfemur -17.1227 -5.0554 18.5915
rtibia 28.9338
rfoot -12.546 -19.6736
rtoes -4.41238
lfemur -10.1684 -2.20799 -17.7075
ltibia 16.9765
lfoot -5.32574 18.977
ltoes 0.167306
1230
root 0.57096 18.2492 36.8824 9.88657 1.50001 1.88202
lowerback -3.49447 -2.97292 -1.50518
upperback -1.72349 -4.02103 9.47252
thorax 0.971472 -2.03306 10.7218
lowerneck -26.6501 4.98602 13.3755
upperneck 26.0608 6.3454 -15.1276
head 14.4134 2.01198 -7.28294
rclavicle 1.39149e-014 -1.27222e-014
rhumerus -35.3885 -23.5637 -52.7303
rradius 20.5538
rwrist 1.96577
rhand -14.1855 -2.43245
rfingers 7.12502
rthumb 11.9502 -32.0714
lclavicle 1.39149e-014 -1.27222e-014
lhumerus -39.9945 -2.32539 87.5253
lradius 47.7182
lwrist 4.24976
lhand -6.84474 -5.31967
lfingers 7.12502
lthumb 19.0201 23.7703
rfemur -17.0914 -4.97576 18.7331
rtibia 28.8508
rfoot -12.5145 -19.6743
rtoes -4.44162
lfemur -10.216 -2.21196 -17.5692
ltibia 17.114
lfoot -5.41743 19.0938
ltoes 0.0976049
1231
root 0.570834 18.2492 36.8941 9.91351 1.41844 1.75854
lowerback -3.54783 -3.03678 -1.64015
upperback -1.85136 -4.09476 9.33658
thorax 0.881368 -2.06362 10.6446
lowerneck -26.5016 4.96899 13.3229
upperneck 26.0523 6.35178 -15.098
head 14.376 2.01743 -7.2556
rclavicle -9.46215e-014 6.67916e-014
rhumerus -35.8104 -23.3521 -52.8856
rradius 20.5408
rwrist 1.91931
rhand -14.1907 -2.39166
rfingers 7.12502
rthumb 11.9452 -32.0309
lclavicle -9.46215e-014 6.67916e-014
lhumerus -40.1419 -2.16728 87.3826
lradius 47.2777
lwrist 4.27661
lhand -6.85641 -5.30123
lfingers 7.12502
lthumb 19.0089 23.7899
rfemur -17.0621 -4.89155 18.8656
rtibia 28.7792
rfoot -12.4915 -19.673
rtoes -4.46497
lfemur -10.2327 -2.20656 -17.439
ltibia 17.1972
lfoot -5.47926 19.198
ltoes -0.25769
1232
root 0.57094 18.2491 36.9051 9.93441 1.33265 1.63239
lowerback -3.68126 -3.04627 -1.70225
upperback -1.8941 -4.10497 9.16628
thorax 0.905141 -2.06738 10.4827
lowerneck -26.5725 4.91843 13.1801
upperneck 26.0759 6.30099 -15.0002
head 14.3805 1.99052 -7.19928
rclavicle -2.82274e-014 1.27222e-014
rhumerus -36.1654 -23.3418 -53.0359
rradius 20.5337
rwrist 1.86064
rhand -14.1987 -2.37595
rfingers 7.12502
rthumb 11.9375 -32.0156
lclavicle -2.82274e-014 1.27222e-014
lhumerus -40.0891 -2.14077 87.2649
lradius 46.7723
lwrist 4.27136
lhand -6.83219 -5.26531
lfingers 7.12502
lthumb 19.0322 23.8235
rfemur -17.0276 -4.79994 18.9988
rtibia 28.7066
rfoot -12.4673 -19.6726
rtoes -4.49008
lfemur -10.2471 -2.19334 -17.3067
ltibia 17.285
lfoot -5.5476 19.2959
ltoes -0.913957
1233
root 0.571307 18.2488 36.9155 9.9433 1.24416 1.4985
lowerback -3.80401 -2.99744 -1.68503
upperback -1.95718 -4.03591 8.95588
thorax 0.877999 -2.0283 10.2355
lowerneck -26.6451 4.78637 12.9447
upperneck 26.1557 6.15044 -14.8238
head 14.383 1.92137 -7.11566
rclavicle -2.74323e-014 5.08889e-014
rhumerus -36.6621 -23.4043 -53.1144
rradius 20.5728
rwrist 1.7439
rhand -14.2139 -2.36719
rfingers 7.12502
rthumb 11.9228 -32.0077
lclavicle -2.74323e-014 5.08889e-014
lhumerus -40.0493 -2.27241 87.1835
lradius 46.233
lwrist 4.24051
lhand -6.79086 -5.21887
lfingers 7.12502
lthumb 19.072 23.866
rfemur -16.9797 -4.69959 19.1379
rtibia 28.631
rfoot -12.4411 -19.6755
rtoes -4.50655
lfemur -10.2534 -2.16897 -17.167
ltibia 17.3794
lfoot -5.6275 19.3854
ltoes -1.72356
1234
root 0.571684 18.2483 36.9255 9.94431 1.15523 1.35914
lowerback -3.91235 -2.94562 -1.67181
upperback -2.02873 -3.96183 8.74836
thorax 0.834161 -1.98619 9.9964
lowerneck -26.6889 4.64073 12.6979
upperneck 26.2274 5.98638 -14.6431
head 14.3738 1.84668 -7.02977
rclavicle 6.69904e-014 -6.67916e-014
rhumerus -37.1628 -23.4511 -53.1874
rradius 20.629
rwrist 1.6266
rhand -14.2277 -2.36196
rfingers 7.12502
rthumb 11.9095 -32.0032
lclavicle 6.69904e-014 -6.67916e-014
lhumerus -40.0191 -2.39714 87.1034
lradius 45.664
lwrist 4.17263
lhand -6.74211 -5.17307
lfingers 7.12502
lthumb 19.1188 23.9072
rfemur -16.9236 -4.59102 19.282
rtibia 28.5541
rfoot -12.4148 -19.686
rtoes -4.51874
lfemur -10.2555 -2.12895 -17.0216
ltibia 17.4797
lfoot -5.71662 19.4595
ltoes -2.70144
1235
root 0.572605 18.2474 36.9347 9.93146 1.06027 1.21606
lowerback -4.00162 -2.85669 -1.61037
upperback -2.11371 -3.83745 8.51511
thorax 0.752285 -1.91722 9.70589
lowerneck -26.7113 4.44254 12.3936
upperneck 26.3204 5.76001 -14.417
head 14.3544 1.74582 -6.92714
rclavicle 6.55989e-015 2.22639e-014
rhumerus -37.7422 -23.5478 -53.2081
rradius 20.6987
rwrist 1.53606
rhand -14.2121 -2.35028
rfingers 7.12502
rthumb 11.9245 -31.9907
lclavicle 6.55989e-015 2.22639e-014
lhumerus -39.9992 -2.61494 87.0433
lradius 45.0651
lwrist 4.09678
lhand -6.69017 -5.12471
lfingers 7.12502
lthumb 19.1688 23.9506
rfemur -16.854 -4.4811 19.4274
rtibia 28.4784
rfoot -12.39 -19.6933
rtoes -4.52796
lfemur -10.243 -2.08447 -16.8747
ltibia 17.582
lfoot -5.81428 19.5343
ltoes -3.25242
1236
root 0.574028 18.2467 36.9434 9.94211 0.958472 1.08283
lowerback -4.10028 -2.89447 -1.72054
upperback -2.15432 -3.88344 8.36951
thorax 0.770597 -1.93944 9.60222
lowerneck -26.7559 4.42223 12.2903
upperneck 26.3318 5.75129 -14.3555
head 14.3606 1.73749 -6.88466
rclavicle -1.39149e-015 6.36111e-014
rhumerus -37.932 -23.4642 -53.4338
rradius 20.6965
rwrist 1.55392
rhand -14.1868 -2.31399
rfingers 7.12502
rthumb 11.949 -31.953
lclavicle -1.39149e-015 6.36111e-014
lhumerus -39.9332 -2.40781 86.8724
lradius 44.4623
lwrist 3.98802
lhand -6.64234 -5.09264
lfingers 7.12502
lthumb 19.2148 23.9781
rfemur -16.811 -4.37193 19.5617
rtibia 28.398
rfoot -12.3577 -19.6959
rtoes -4.52984
lfemur -10.2705 -2.03802 -16.7402
ltibia 17.7119
lfoot -5.92473 19.615
ltoes -3.64479
